<?xml version="1.0" standalone="no"?>
<!DOCTYPE svg PUBLIC "-//W3C//DTD SVG 20010904//EN"
 "http://www.w3.org/TR/2001/REC-SVG-20010904/DTD/svg10.dtd">
<svg version="1.0" xmlns="http://www.w3.org/2000/svg"
 width="700.000000pt" height="700.000000pt" viewBox="0 0 700.000000 700.000000"
 preserveAspectRatio="xMidYMid meet">
<metadata>
Created by potrace 1.14, written by Peter Selinger 2001-2017
</metadata>
<g transform="translate(0.000000,700.000000) scale(0.100000,-0.100000)"
fill="#000000" stroke="none">
<path d="M3478 6766 c-1 -2 -37 -6 -78 -9 -41 -4 -111 -16 -155 -27 -80 -21
-305 -124 -305 -140 0 -5 -9 -11 -20 -15 -33 -11 -183 -167 -235 -244 -58 -88
-115 -218 -141 -321 -15 -58 -19 -110 -19 -225 1 -135 4 -160 30 -250 15 -55
57 -161 93 -235 35 -74 79 -166 97 -205 18 -38 51 -109 74 -157 22 -49 58
-125 80 -170 55 -119 119 -252 195 -412 36 -76 66 -140 66 -141 0 -2 30 -65
66 -141 36 -77 79 -166 94 -199 109 -235 130 -274 150 -280 47 -15 64 1 110
97 24 51 69 147 101 214 31 66 68 145 82 175 14 30 51 108 82 174 31 66 111
235 177 375 66 140 151 319 189 398 38 79 69 145 69 147 0 3 25 55 55 117 94
191 126 307 130 470 5 231 -61 437 -198 617 -166 216 -428 359 -692 377 -38 3
-75 7 -82 9 -6 2 -13 2 -15 1z m103 -536 c82 -15 170 -63 233 -127 31 -31 56
-61 56 -66 0 -5 9 -22 20 -37 28 -39 53 -143 52 -217 -2 -297 -297 -513 -579
-425 -185 58 -307 215 -318 409 -7 130 39 249 131 340 111 108 252 151 405
123z"/>
<path d="M2129 6024 c-19 -6 -72 -34 -119 -61 -655 -380 -1144 -998 -1364
-1723 -28 -91 -71 -277 -81 -350 -4 -24 -8 -47 -10 -50 -1 -3 -6 -34 -10 -70
-3 -36 -9 -78 -11 -95 -3 -16 -7 -129 -8 -250 -3 -164 1 -258 14 -372 84 -710
390 -1327 903 -1823 97 -93 124 -111 167 -112 43 -1 73 24 110 89 18 32 48 79
66 104 39 54 51 97 35 128 -6 11 -62 71 -124 133 -133 134 -222 243 -322 393
-207 311 -350 676 -401 1024 -4 25 -8 55 -10 66 -33 170 -21 577 21 790 8 39
16 82 19 96 13 80 81 293 132 417 92 223 255 496 391 654 199 231 405 410 636
552 42 26 82 57 88 68 9 16 16 244 10 329 -1 23 -47 66 -74 71 -13 3 -39 -1
-58 -8z"/>
<path d="M4770 6027 c-44 -22 -50 -49 -46 -219 2 -117 6 -161 17 -174 8 -9 71
-55 142 -100 70 -46 133 -88 140 -93 239 -193 349 -303 531 -532 42 -52 155
-235 206 -331 143 -274 224 -523 275 -848 19 -122 25 -418 12 -574 -26 -302
-121 -634 -261 -915 -133 -266 -287 -476 -518 -702 -59 -59 -109 -114 -109
-123 -1 -9 -2 -22 -3 -28 -3 -19 15 -60 42 -92 13 -16 39 -60 57 -97 40 -77
65 -99 116 -99 43 0 76 24 202 147 423 414 702 911 832 1483 13 58 29 139 35
180 6 41 13 86 15 99 27 165 26 573 -1 766 -6 42 -49 275 -57 310 -75 317
-222 652 -414 943 -265 402 -637 744 -1055 970 -79 44 -116 50 -158 29z"/>
<path d="M2650 4652 c0 -6 25 -99 56 -209 30 -109 62 -223 70 -253 15 -57 83
-296 108 -385 8 -27 31 -106 50 -175 19 -69 73 -262 120 -430 86 -310 179
-642 287 -1030 71 -253 73 -261 105 -291 21 -19 38 -23 112 -27 87 -4 119 -14
158 -49 16 -14 202 -327 317 -533 10 -19 28 -50 39 -67 28 -46 28 -89 2 -158
-74 -199 -38 -400 99 -550 159 -174 405 -220 620 -115 l60 29 56 -43 c108 -84
185 -112 344 -124 104 -9 137 1 166 48 32 53 7 131 -47 145 -15 4 -59 9 -98
11 -84 3 -164 30 -228 73 -25 18 -46 34 -46 37 0 3 10 24 22 47 36 71 55 150
57 239 6 226 -139 428 -361 504 -52 18 -226 25 -288 12 -30 -7 -88 15 -106 40
-7 9 -165 318 -350 687 -1156 2300 -1293 2570 -1308 2573 -9 2 -16 -1 -16 -6z
m898 -2117 c29 -8 55 -67 47 -104 -13 -60 -106 -81 -150 -34 -41 45 -31 108
23 137 26 15 32 15 80 1z m1099 -1384 c160 -43 260 -220 217 -383 -38 -147
-155 -235 -312 -236 -175 -1 -312 144 -308 323 6 209 198 351 403 296z"/>
<path d="M3936 3951 l-355 -709 3 -63 c3 -58 12 -82 101 -259 l98 -195 13 40
c14 45 74 257 109 385 13 47 53 191 89 320 37 129 91 325 122 435 72 258 172
616 190 679 18 62 18 76 0 76 -9 0 -148 -266 -370 -709z"/>
<path d="M2997 2083 c-355 -711 -345 -692 -385 -711 -20 -10 -48 -17 -62 -14
-78 11 -223 9 -267 -4 -142 -42 -266 -140 -330 -260 -165 -309 12 -686 354
-758 222 -47 449 54 558 249 18 33 41 83 50 110 33 99 24 246 -23 370 -11 28
-18 62 -15 77 2 14 33 77 69 140 36 62 115 199 176 305 99 174 158 253 188
253 6 0 3 17 -5 38 -12 32 -82 276 -115 402 -13 50 -26 70 -46 70 -7 0 -73
-120 -147 -267z m-477 -938 c24 -8 62 -30 85 -47 187 -143 158 -431 -53 -535
-49 -24 -69 -28 -142 -28 -73 0 -92 4 -135 27 -116 61 -177 160 -177 288 0
216 217 367 422 295z"/>
</g>
</svg>
