<svg xmlns="http://www.w3.org/2000/svg" width="84" height="83.433" viewBox="0 0 84 83.433">
  <g id="law" transform="translate(0 -22.779)">
    <path id="Path_346" data-name="Path 346" d="M41.168,297.818c-.719,5.849-5.312,10.361-10.874,10.361s-10.154-4.512-10.874-10.361Z" transform="translate(-16.235 -225.842)" fill="#feca57"/>
    <path id="Path_347" data-name="Path 347" d="M99.489,148.3,90.021,120.4a1.421,1.421,0,0,1,.749-1.776,1.24,1.24,0,0,1,1.629.817l9.467,27.909a1.421,1.421,0,0,1-.749,1.776A1.241,1.241,0,0,1,99.489,148.3Z" transform="translate(-75.186 -78.627)" fill="#ccd2db"/>
    <path id="Path_348" data-name="Path 348" d="M15.346,149.122a1.421,1.421,0,0,1-.749-1.776l9.467-27.91a1.24,1.24,0,0,1,1.629-.817,1.421,1.421,0,0,1,.749,1.776L16.974,148.3A1.241,1.241,0,0,1,15.346,149.122Z" transform="translate(-12.136 -78.627)" fill="#ccd2db"/>
    <path id="Path_349" data-name="Path 349" d="M349.718,150.56a1.422,1.422,0,0,1-.743-1.779l9.467-27.6a1.24,1.24,0,0,1,1.631-.81,1.421,1.421,0,0,1,.743,1.779l-9.467,27.6A1.24,1.24,0,0,1,349.718,150.56Z" transform="translate(-291.654 -80.067)" fill="#ccd2db"/>
    <path id="Path_350" data-name="Path 350" d="M433.867,149.75l-9.467-27.6a1.422,1.422,0,0,1,.743-1.779,1.24,1.24,0,0,1,1.631.81l9.467,27.6a1.421,1.421,0,0,1-.743,1.779A1.24,1.24,0,0,1,433.867,149.75Z" transform="translate(-354.704 -80.067)" fill="#ccd2db"/>
    <g id="Group_89" data-name="Group 89" transform="translate(15.357 34.004)">
      <path id="Path_351" data-name="Path 351" d="M94.869,94.287a1.316,1.316,0,0,1-1.261-1.253,1.355,1.355,0,0,1,1.144-1.505c4.212-.431,5.335-.954,22.033-5.947a1.259,1.259,0,0,1,1.558.967,1.4,1.4,0,0,1-.887,1.7c-16.786,5.02-18.036,5.58-22.466,6.034A1.182,1.182,0,0,1,94.869,94.287Z" transform="translate(-93.603 -85.532)" fill="#3e4b5a"/>
    </g>
    <g id="Group_90" data-name="Group 90" transform="translate(43.276 33.86)">
      <path id="Path_352" data-name="Path 352" d="M288.189,93.724a1.184,1.184,0,0,1-.12-.006c-4.6-.471-5.83-1.032-23.359-6.274a1.4,1.4,0,0,1-.887-1.7,1.26,1.26,0,0,1,1.558-.967c17.554,5.249,18.608,5.746,22.926,6.188a1.355,1.355,0,0,1,1.144,1.505A1.316,1.316,0,0,1,288.189,93.724Z" transform="translate(-263.777 -84.728)" fill="#3e4b5a"/>
    </g>
    <path id="Path_353" data-name="Path 353" d="M242.814,29.049a4.619,4.619,0,0,1,2.488.732V24.652a1.8,1.8,0,0,0-1.718-1.873h-1.54a1.8,1.8,0,0,0-1.718,1.873V29.78A4.617,4.617,0,0,1,242.814,29.049Z" transform="translate(-200.898 0)" fill="#c46f5f"/>
    <path id="Path_354" data-name="Path 354" d="M245.3,170.626V114.078a4.594,4.594,0,0,1-4.975,0v56.548Z" transform="translate(-200.898 -74.968)" fill="#c46f5f"/>
    <g id="Group_91" data-name="Group 91" transform="translate(39.429 22.779)">
      <path id="Path_355" data-name="Path 355" d="M243.676,24.652a1.911,1.911,0,0,1,.813-1.59,1.6,1.6,0,0,0-.9-.283h-1.54a1.8,1.8,0,0,0-1.718,1.873V29.78a4.616,4.616,0,0,1,2.488-.732,4.564,4.564,0,0,1,.861.085Z" transform="translate(-240.327 -22.779)" fill="#b45f4a"/>
    </g>
    <g id="Group_92" data-name="Group 92" transform="translate(39.429 39.11)">
      <path id="Path_356" data-name="Path 356" d="M242.815,114.811a4.617,4.617,0,0,1-2.488-.732v56.548h3.349v-55.9A4.548,4.548,0,0,1,242.815,114.811Z" transform="translate(-240.327 -114.079)" fill="#b45f4a"/>
    </g>
    <path id="Path_357" data-name="Path 357" d="M336.509,266.77h24.877a2.241,2.241,0,0,1,2.132,2.325v.9a2.242,2.242,0,0,1-2.132,2.325H336.509A2.241,2.241,0,0,1,334.377,270v-.9A2.241,2.241,0,0,1,336.509,266.77Z" transform="translate(-279.518 -200.348)" fill="#f4b537"/>
    <path id="Path_358" data-name="Path 358" d="M361.386,272.925H336.509a2.078,2.078,0,0,1-1.7-.934,2.446,2.446,0,0,0-.43,1.391v.9a2.241,2.241,0,0,0,2.132,2.325h24.877a2.241,2.241,0,0,0,2.132-2.325v-.9a2.445,2.445,0,0,0-.43-1.391A2.078,2.078,0,0,1,361.386,272.925Z" transform="translate(-279.518 -204.635)" fill="#e59d1f"/>
    <path id="Path_359" data-name="Path 359" d="M381.77,297.818c-.719,5.849-5.312,10.361-10.874,10.361s-10.154-4.512-10.874-10.361Z" transform="translate(-300.957 -225.842)" fill="#feca57"/>
    <path id="Path_360" data-name="Path 360" d="M24.492,297.818H19.421c.72,5.849,5.312,10.361,10.874,10.361a10.135,10.135,0,0,0,2.535-.321A11.649,11.649,0,0,1,24.492,297.818Z" transform="translate(-16.235 -225.842)" fill="#f4b537"/>
    <path id="Path_361" data-name="Path 361" d="M365.095,297.818h-5.071c.72,5.849,5.312,10.361,10.874,10.361a10.135,10.135,0,0,0,2.535-.321A11.649,11.649,0,0,1,365.095,297.818Z" transform="translate(-300.958 -225.842)" fill="#f4b537"/>
    <ellipse id="Ellipse_16" data-name="Ellipse 16" cx="3.398" cy="3.705" rx="3.398" ry="3.705" transform="translate(11.173 37.585)" fill="#feca57"/>
    <ellipse id="Ellipse_17" data-name="Ellipse 17" cx="3.398" cy="3.705" rx="3.398" ry="3.705" transform="translate(66.031 37.585)" fill="#feca57"/>
    <path id="Path_362" data-name="Path 362" d="M205.331,427.125H186.14a2.241,2.241,0,0,0-2.132,2.325v3.782h23.455V429.45A2.241,2.241,0,0,0,205.331,427.125Z" transform="translate(-153.819 -332.02)" fill="#3e4b5a"/>
    <path id="Path_363" data-name="Path 363" d="M184.049,437.568a2.506,2.506,0,0,0-.042.457v3.782h23.455v-3.782a2.5,2.5,0,0,0-.042-.457Z" transform="translate(-153.818 -340.595)" fill="#303f49"/>
    <path id="Path_364" data-name="Path 364" d="M193.963,458.173H169.086a2.241,2.241,0,0,0-2.132,2.325v.9a2.241,2.241,0,0,0,2.132,2.325h24.877A2.241,2.241,0,0,0,196.1,461.4v-.9A2.241,2.241,0,0,0,193.963,458.173Z" transform="translate(-139.563 -357.514)" fill="#576574"/>
    <path id="Path_365" data-name="Path 365" d="M193.964,464.328H169.087a2.078,2.078,0,0,1-1.7-.934,2.445,2.445,0,0,0-.43,1.391v.9a2.241,2.241,0,0,0,2.132,2.325h24.877a2.241,2.241,0,0,0,2.132-2.325v-.9a2.445,2.445,0,0,0-.43-1.391A2.079,2.079,0,0,1,193.964,464.328Z" transform="translate(-139.564 -361.801)" fill="#3e4b5a"/>
    <ellipse id="Ellipse_18" data-name="Ellipse 18" cx="4.95" cy="5.397" rx="4.95" ry="5.397" transform="translate(36.966 29.048)" fill="#feca57"/>
    <path id="Path_366" data-name="Path 366" d="M73.17,109.256a3.88,3.88,0,0,1,.863-2.461,3.273,3.273,0,0,0-2.535-1.244,3.719,3.719,0,0,0,0,7.41,3.272,3.272,0,0,0,2.535-1.244A3.881,3.881,0,0,1,73.17,109.256Z" transform="translate(-56.927 -67.966)" fill="#f4b537"/>
    <path id="Path_367" data-name="Path 367" d="M407.548,109.256a3.88,3.88,0,0,1,.863-2.461,3.273,3.273,0,0,0-2.535-1.244,3.719,3.719,0,0,0,0,7.41,3.272,3.272,0,0,0,2.535-1.244A3.88,3.88,0,0,1,407.548,109.256Z" transform="translate(-336.446 -67.966)" fill="#f4b537"/>
    <path id="Path_368" data-name="Path 368" d="M230.391,63.226a5.505,5.505,0,0,1,2.414-4.635,4.622,4.622,0,0,0-2.535-.762,5.417,5.417,0,0,0,0,10.793,4.623,4.623,0,0,0,2.535-.762A5.5,5.5,0,0,1,230.391,63.226Z" transform="translate(-188.354 -28.781)" fill="#f4b537"/>
    <path id="Path_369" data-name="Path 369" d="M2.132,266.77H27.009a2.241,2.241,0,0,1,2.132,2.325v.9a2.241,2.241,0,0,1-2.132,2.325H2.132A2.242,2.242,0,0,1,0,270v-.9A2.241,2.241,0,0,1,2.132,266.77Z" transform="translate(0 -200.348)" fill="#f4b537"/>
    <path id="Path_370" data-name="Path 370" d="M27.009,272.925H2.132a2.078,2.078,0,0,1-1.7-.934A2.445,2.445,0,0,0,0,273.382v.9a2.241,2.241,0,0,0,2.132,2.325H27.009a2.241,2.241,0,0,0,2.132-2.325v-.9a2.445,2.445,0,0,0-.43-1.391A2.078,2.078,0,0,1,27.009,272.925Z" transform="translate(0 -204.635)" fill="#e59d1f"/>
  </g>
</svg>
