<svg xmlns="http://www.w3.org/2000/svg" width="92.264" height="93.434" viewBox="0 0 92.264 93.434">
  <g id="timer" transform="translate(37.459)">
    <path id="Path_371" data-name="Path 371" d="M116.412,76.294a1.375,1.375,0,0,0-1.856-.487l-3.5,1.979a1.315,1.315,0,0,0-.5,1.817l3.32,5.63.556.07,5.259-2.978v-.469Z" transform="translate(-124.812 -63.874)" fill="#3f6d8e"/>
    <path id="Path_372" data-name="Path 372" d="M113.607,82.1a1.637,1.637,0,0,1-.13-1.4l-2.422,1.369a1.315,1.315,0,0,0-.5,1.817l3.32,5.63.556.07,2.691-1.524Z" transform="translate(-124.813 -68.161)" fill="#365e7d"/>
    <path id="Path_373" data-name="Path 373" d="M241.1,40.636h-6.072l-.321.3v8.574l.28.35h5.97l.511-.35V40.939Z" transform="translate(-229.406 -34.32)" fill="#365e7d"/>
    <path id="Path_374" data-name="Path 374" d="M238.088,40.939l.321-.3h-3.38l-.321.3v8.574l.28.35h3.38l-.28-.35Z" transform="translate(-229.406 -34.32)" fill="#294b64"/>
    <path id="Path_387" data-name="Path 387" d="M34.314,2.037A33.47,33.47,0,0,1,67.283,35.005,31.8,31.8,0,0,1,35.005,67.283,33.47,33.47,0,0,1,2.037,34.314,31.8,31.8,0,0,1,34.314,2.037Z" transform="translate(-40.336 47.302) rotate(-45)" fill="#90d8f9"/>
    <path id="Path_375" data-name="Path 375" d="M53.8,128.946c0-16.925,13.306-30.806,30.235-32.166-.9-.073-1.813-.111-2.734-.111-18.208,0-32.969,14.451-32.969,32.278S63.095,161.224,81.3,161.224c.921,0,1.833-.039,2.734-.111C67.109,159.751,53.8,145.871,53.8,128.946Z" transform="translate(-72.62 -81.643)" fill="#75cef9"/>
    <path id="Path_388" data-name="Path 388" d="M27.505,1.632A26.829,26.829,0,0,1,53.932,28.059,25.491,25.491,0,0,1,28.059,53.932,26.829,26.829,0,0,1,1.632,27.505,25.491,25.491,0,0,1,27.505,1.632Z" transform="translate(-30.611 47.302) rotate(-45)" fill="#f4fbff"/>
    <path id="Path_376" data-name="Path 376" d="M96.984,163.749a26.1,26.1,0,0,1,22.706-25.615,27.1,27.1,0,0,0-3.721-.258c-14.572,0-26.427,11.606-26.427,25.873s11.855,25.873,26.427,25.873a27.1,27.1,0,0,0,3.721-.258,26.1,26.1,0,0,1-22.706-25.615Z" transform="translate(-107.286 -116.446)" fill="#e4f6ff"/>
    <path id="Path_377" data-name="Path 377" d="M218.439,0H204.586a1.454,1.454,0,0,0-1.469,1.438V5.181a1.454,1.454,0,0,0,1.469,1.438h13.853a1.454,1.454,0,0,0,1.469-1.438V1.438A1.454,1.454,0,0,0,218.439,0Z" transform="translate(-202.83)" fill="#3f6d8e"/>
    <path id="Path_378" data-name="Path 378" d="M209.387,5.181V1.438A1.454,1.454,0,0,1,210.856,0h-6.269a1.454,1.454,0,0,0-1.469,1.438V5.181a1.454,1.454,0,0,0,1.469,1.438h6.269A1.454,1.454,0,0,1,209.387,5.181Z" transform="translate(-202.831 0)" fill="#365e7d"/>
    <path id="Path_379" data-name="Path 379" d="M256,137.876v20.519l.375.495,3.884,2.962h14.106l2.167,1.321.5.576h5.39C282.427,149.482,270.572,137.876,256,137.876Z" transform="translate(-247.317 -116.446)" fill="#dd636e"/>
    <path id="Path_380" data-name="Path 380" d="M261.271,138.394a27,27,0,0,0-5.271-.518v20.519l.375.495,3.884,2.962h1.012Z" transform="translate(-247.317 -116.446)" fill="#da4a54"/>
    <path id="Path_381" data-name="Path 381" d="M188.827,288.881H184.41a2.4,2.4,0,1,0,0,4.8h4.416l.245-.509v-3.87Z" transform="translate(-185.03 -243.98)" fill="#ffaa5b"/>
    <path id="Path_382" data-name="Path 382" d="M298.235,288.881h-13.7l-.422.318v3.71l.422.776h13.7a2.4,2.4,0,1,0,0-4.8Z" transform="translate(-270.969 -243.98)" fill="#ffaa5b"/>
    <path id="Path_383" data-name="Path 383" d="M184.411,297.809a2.46,2.46,0,0,1-2.122-1.2,2.349,2.349,0,0,0-.331,1.2,2.428,2.428,0,0,0,2.453,2.4h4.416l.245-.509v-2.4l-.245.509Z" transform="translate(-185.03 -250.506)" fill="#ff9838"/>
    <path id="Path_384" data-name="Path 384" d="M298.235,297.809h-13.7l-.422-.776v2.4l.422.776h13.7a2.428,2.428,0,0,0,2.453-2.4,2.349,2.349,0,0,0-.331-1.2A2.46,2.46,0,0,1,298.235,297.809Z" transform="translate(-270.969 -250.506)" fill="#ff9838"/>
    <path id="Path_385" data-name="Path 385" d="M109.469,130.15c-15.248,0-27.653,12.145-27.653,27.074S94.221,184.3,109.469,184.3s27.653-12.145,27.653-27.074-12.405-27.074-27.653-27.074Zm13.643,47.808-.56-.95a1.241,1.241,0,0,0-1.676-.44,1.187,1.187,0,0,0-.449,1.64l.562.954a25.441,25.441,0,0,1-10.294,2.7v-1.1a1.227,1.227,0,0,0-2.453,0v1.1a25.441,25.441,0,0,1-10.294-2.7l.562-.954a1.187,1.187,0,0,0-.449-1.64,1.241,1.241,0,0,0-1.676.44l-.56.95a25.144,25.144,0,0,1-7.535-7.376l.971-.549a1.187,1.187,0,0,0,.449-1.64,1.241,1.241,0,0,0-1.676-.44l-.974.551A24.1,24.1,0,0,1,84.3,158.425h1.128a1.2,1.2,0,1,0,0-2.4H84.3a24.1,24.1,0,0,1,2.762-10.079l.974.551a1.241,1.241,0,0,0,1.676-.44,1.187,1.187,0,0,0-.449-1.64l-.971-.549a25.142,25.142,0,0,1,7.535-7.376l.56.95a1.241,1.241,0,0,0,1.676.44,1.187,1.187,0,0,0,.449-1.64l-.562-.954a25.44,25.44,0,0,1,10.294-2.7v1.1a1.227,1.227,0,0,0,2.453,0v-1.1a25.44,25.44,0,0,1,10.294,2.7l-.562.954a1.187,1.187,0,0,0,.449,1.64,1.241,1.241,0,0,0,1.676-.44l.56-.95a25.146,25.146,0,0,1,7.535,7.376l-.971.549a1.187,1.187,0,0,0-.449,1.64,1.241,1.241,0,0,0,1.676.44l.974-.551a24.1,24.1,0,0,1,2.762,10.079h-1.128a1.2,1.2,0,1,0,0,2.4h1.128a24.1,24.1,0,0,1-2.762,10.079l-.974-.551a1.241,1.241,0,0,0-1.676.44,1.187,1.187,0,0,0,.449,1.64l.971.549a25.146,25.146,0,0,1-7.535,7.376Z" transform="translate(-100.787 -109.921)" fill="#365e7d"/>
    <path id="Path_389" data-name="Path 389" d="M5.557.242a5.511,5.511,0,0,1,5.411,5.493,5.315,5.315,0,0,1-5.33,5.411A5.511,5.511,0,0,1,.227,5.654,5.315,5.315,0,0,1,5.557.242Z" transform="translate(1.296 50.304) rotate(-67.486)" fill="#ffba7e"/>
    <path id="Path_386" data-name="Path 386" d="M225.4,275.242a5.368,5.368,0,0,1,3.547-5.012,5.545,5.545,0,0,0-1.922-.342,5.355,5.355,0,1,0,0,10.708,5.546,5.546,0,0,0,1.922-.342,5.368,5.368,0,0,1-3.547-5.012Z" transform="translate(-218.34 -227.939)" fill="#ffaa5b"/>
  </g>
</svg>
